<svg xmlns="http://www.w3.org/2000/svg" viewBox="0 0 31.641 31.641">
  <defs>
    <style>
      .cls-1 {
        fill: #e66234;
      }
    </style>
  </defs>
  <g id="Clock" transform="translate(-247 -1842.359)">
    <path id="Path_13" data-name="Path 13" class="cls-1" d="M4.746,4.746A14.362,14.362,0,0,1,15.82,0,14.362,14.362,0,0,1,26.895,4.746,14.362,14.362,0,0,1,31.641,15.82a14.362,14.362,0,0,1-4.746,11.074A14.362,14.362,0,0,1,15.82,31.641,14.362,14.362,0,0,1,4.746,26.895C1.846,23.73,0,20.3,0,15.82A14.362,14.362,0,0,1,4.746,4.746ZM22.939,22.939l1.846-1.846L18.193,14.5,15.82,3.955H13.184V15.82a2.394,2.394,0,0,0,.791,1.846.921.921,0,0,0,.527.264Z" transform="translate(247 1842.359)"/>
  </g>
</svg>
