<svg xmlns="http://www.w3.org/2000/svg" viewBox="0 0 64.432 79.897">
  <defs>
    <style>
      .cls-1 {
        fill: none;
        stroke: #fff;
        stroke-width: 3px;
      }
    </style>
  </defs>
  <g id="Symbol_10_1" data-name="Symbol 10 – 1" transform="translate(-6113.771 -2819.27)">
    <path id="Path_14" data-name="Path 14" class="cls-1" d="M6074.282,2091.171s13.483-1.618,15.451,11.485-11,24.166-16.639,25.009a34.346,34.346,0,0,1-10.68-.186s-14.859-8.617-14.934-18.837,2.829-14.909,9.219-17.471a21.572,21.572,0,0,1,11.617-1.416v-4.4s-2.287-6.02-5.9-8.06" transform="translate(78.042 751.84)"/>
    <path id="Path_15" data-name="Path 15" class="cls-1" d="M6081.045,2079.435s-.277-9.141,7.066-11.821,8.377-2.934,8.377-2.934.562,9.9-6.2,12.429S6081.045,2079.435,6081.045,2079.435Z" transform="translate(65.704 756.477)"/>
    <path id="Path_16" data-name="Path 16" class="cls-1" d="M6094.09,2157.026h-55.95s-7.178,1.635-6.859,8.4,6.859,8.449,6.859,8.449h55.95" transform="translate(84 723.793)"/>
    <path id="Path_17" data-name="Path 17" class="cls-1" d="M6043.555,2162.947h55.163" transform="translate(79.485 721.617)"/>
    <path id="Path_18" data-name="Path 18" class="cls-1" d="M6043.555,2162.947h55.163" transform="translate(79.485 726.044)"/>
    <path id="Path_19" data-name="Path 19" class="cls-1" d="M6043.555,2162.947h55.163" transform="translate(79.485 730.47)"/>
  </g>
</svg>
