<svg xmlns="http://www.w3.org/2000/svg" viewBox="0 0 69.096 66.974">
  <defs>
    <style>
      .cls-1 {
        fill: none;
        stroke: #fff;
        stroke-width: 3px;
      }
    </style>
  </defs>
  <g id="Symbol_11_1" data-name="Symbol 11 – 1" transform="translate(-6016.453 -2225.02)">
    <path id="Path_20" data-name="Path 20" class="cls-1" d="M6135.194,2353.48h-18.963s-3.135,9.523-1.008,17.727,6.254,13.651,10.729,16.82,5.354,3.928,5.354,3.928v6.833s-5.686,2.987-7.666,4.043-2.256,3.829-2.256,3.829" transform="translate(-83.606 -126.96)"/>
    <path id="Path_21" data-name="Path 21" class="cls-1" d="M6114.482,2353.48h19.173s3.168,9.523,1.019,17.727-6.323,13.651-10.846,16.82-5.414,3.928-5.414,3.928v6.833s5.749,2.987,7.75,4.043,2.28,3.829,2.28,3.829" transform="translate(-63.926 -126.96)"/>
    <path id="Path_22" data-name="Path 22" class="cls-1" d="M6117.149,2405.031h34.99v10.792h-34.99Z" transform="translate(-83.522 -125.331)"/>
    <path id="Path_23" data-name="Path 23" class="cls-1" d="M8.8,9.173s3.416-.867,2.774-5.309S5-1.776,1.781,3.41-.511,18.293,6.344,23.362s12.625,3.308,13.747,5.309-.336,4.058-2.338,3.611" transform="matrix(1, 0.017, -0.017, 1, 6018.581, 2229.656)"/>
    <path id="Path_24" data-name="Path 24" class="cls-1" d="M6113.972,2365.865s-3.416-.867-2.773-5.309,6.571-5.64,9.788-.454,2.292,14.883-4.562,19.952-12.623,3.308-13.745,5.309.336,4.058,2.338,3.611" transform="translate(-38.755 -126.502)"/>
    <path id="Path_25" data-name="Path 25" class="cls-1" d="M6120.239,2360.6s-.3,8.308,2.851,15.288,7.313,9.25,7.313,9.25" transform="translate(-83.425 -126.735)"/>
  </g>
</svg>
