<svg xmlns="http://www.w3.org/2000/svg" viewBox="0 0 52.956 80.83">
  <defs>
    <style>
      .cls-1 {
        fill: none;
        stroke: #fff;
        stroke-width: 3px;
      }
    </style>
  </defs>
  <g id="Symbol_13_1" data-name="Symbol 13 – 1" transform="translate(-6156.395 -2191.078)">
    <path id="Path_36" data-name="Path 36" class="cls-1" d="M6625.867,2422.545s-2.3,0-12.725.026-12.046-1.007-13.106-4.293,2.3-5.382,3.8-10.6-.913-17.842,5.332-26.827a17.038,17.038,0,0,1,15.993-7.37s-4.112-.063-5.332-5.837-1.759-14.776,5.332-14.521" transform="translate(-442 -160.536)"/>
    <path id="Path_37" data-name="Path 37" class="cls-1" d="M6599.833,2422.545s2.3,0,12.724.026,12.047-1.007,13.107-4.293-2.3-5.382-3.8-10.6.912-17.842-5.332-26.827a17.039,17.039,0,0,0-15.994-7.37s4.113-.063,5.332-5.837,1.759-14.776-5.332-14.521" transform="translate(-417.954 -160.536)"/>
    <path id="Path_38" data-name="Path 38" class="cls-1" d="M6605.849,2422.986s-.548,7.823,8.059,8.348,8.571-8.348,8.571-8.348" transform="translate(-442.036 -160.95)"/>
    <path id="Path_39" data-name="Path 39" class="cls-1" d="M6629.173,2378.776s9.119,3.785,9.72,12.628" transform="translate(-442.174 -160.688)"/>
    <path id="Path_40" data-name="Path 40" class="cls-1" d="M6638.951,2397.384s-.494,15.508,3.429,18.323" transform="translate(-442.232 -160.798)"/>
  </g>
</svg>
