<svg xmlns="http://www.w3.org/2000/svg" viewBox="0 0 61.224 77.662">
  <defs>
    <style>
      .cls-1, .cls-3 {
        fill: none;
      }

      .cls-1 {
        stroke: #fff;
        stroke-width: 3px;
      }

      .cls-2 {
        stroke: none;
      }
    </style>
  </defs>
  <g id="Symbol_14_1" data-name="Symbol 14 – 1" transform="translate(-6169.728 -2284.5)">
    <path id="Path_41" data-name="Path 41" class="cls-1" d="M7190.25,1933.26h-24.022V1875h31.488l12.822,14.7h-12.822V1875" transform="translate(-995 411)"/>
    <path id="Path_42" data-name="Path 42" class="cls-1" d="M7210.538,1889.4v14.68" transform="translate(-995 411)"/>
    <g id="Ellipse_10" data-name="Ellipse 10" class="cls-1" transform="translate(6201 2323)">
      <circle class="cls-2" cx="8" cy="8" r="8"/>
      <circle class="cls-3" cx="8" cy="8" r="6.5"/>
    </g>
    <g id="Ellipse_11" data-name="Ellipse 11" class="cls-1" transform="translate(6197 2319)">
      <circle class="cls-2" cx="12" cy="12" r="12"/>
      <circle class="cls-3" cx="12" cy="12" r="10.5"/>
    </g>
    <path id="Path_43" data-name="Path 43" class="cls-1" d="M7192.578,1930.123l-8.082,10.153,7.088-.487v6.867l8.993-12.007" transform="translate(-995 411)"/>
    <path id="Path_44" data-name="Path 44" class="cls-1" d="M7192.5,1930.123l8.081,10.153-7.088-.487v6.867l-8.992-12.007" transform="translate(-972.918 411)"/>
    <path id="Path_45" data-name="Path 45" class="cls-1" d="M7172.761,1892.407h16.073" transform="translate(-995 411)"/>
    <path id="Path_46" data-name="Path 46" class="cls-1" d="M7172.762,1893.074h29.585" transform="translate(-995 415.333)"/>
    <path id="Path_47" data-name="Path 47" class="cls-1" d="M7172.762,1893.074h29.585" transform="translate(-995 420.333)"/>
  </g>
</svg>
