<svg xmlns="http://www.w3.org/2000/svg" viewBox="0 0 74.91 74.646">
  <defs>
    <style>
      .cls-1 {
        fill: none;
        stroke: #fff;
        stroke-width: 3px;
      }
    </style>
  </defs>
  <g id="Symbol_15_1" data-name="Symbol 15 – 1" transform="translate(-6189.975 -2168.153)">
    <path id="Path_48" data-name="Path 48" class="cls-1" d="M8170.494,2021.35s8.667-9.46,19.556-14.84,16.4-1.819,17.911,0,1.487,12-3.979,18.96" transform="translate(-1954 174)"/>
    <path id="Path_49" data-name="Path 49" class="cls-1" d="M8165.294,2028.21a61.555,61.555,0,0,1-.066-22.74c2.355-11.939,10.2-12.72,17.355-3.72s8.712,15.92,11.289,21.979,5.178,24.061,2.355,35.7-11.155,7.98-14.711,4.08a62.5,62.5,0,0,1-12.178-20.061A99.91,99.91,0,0,1,8165.294,2028.21Z" transform="translate(-1954 174)"/>
    <path id="Path_50" data-name="Path 50" class="cls-1" d="M8164.2,2014.565c-9.17.264-7.86-.557-13.459,1.724s-7.778,8.541-1.2,14.461,11.423,9.12,22.667,13.18,22.534,4.2,30.045,3.9,14.133-3.039,15.066-7.359-8.8-13.74-19.756-18.7S8173.368,2014.3,8164.2,2014.565Z" transform="translate(-1954 174)"/>
    <path id="Path_51" data-name="Path 51" class="cls-1" d="M8199.672,2031.483s-9.134,12.307-19.2,19.767-17.688,10.439-24.711,6.4,2.021-20.359,4.777-24.479a48.068,48.068,0,0,1,4.645-6.08" transform="translate(-1954 174)"/>
  </g>
</svg>
