<svg xmlns="http://www.w3.org/2000/svg" viewBox="0 0 76.989 74.769">
  <defs>
    <style>
      .cls-1 {
        fill: none;
        stroke: #fff;
        stroke-width: 3px;
      }
    </style>
  </defs>
  <g id="Symbol_27_1" data-name="Symbol 27 – 1" transform="translate(-7989.802 -3018.757)">
    <path id="Path_90" data-name="Path 90" class="cls-1" d="M8629.837,3423.979l-39.606,39.207-8.009,17.013,17.4-8.255,25.254-25.6" transform="translate(-574.8 -401.753)"/>
    <path id="Path_91" data-name="Path 91" class="cls-1" d="M8630.006,3442.775l10.1-9.959s3.817-5.038-.9-8.926-8.4.827-8.4.827" transform="translate(-576.29 -401.702)"/>
    <path id="Path_92" data-name="Path 92" class="cls-1" d="M8627.918,3428.14l8.167,8.06" transform="translate(-576.226 -401.883)"/>
    <path id="Path_93" data-name="Path 93" class="cls-1" d="M8624.11,3432.3l8.324,7.764" transform="translate(-576.107 -402.012)"/>
    <path id="Path_94" data-name="Path 94" class="cls-1" d="M8628.969,3437.606l-32.207,32.022" transform="translate(-575.253 -402.178)"/>
    <path id="Path_95" data-name="Path 95" class="cls-1" d="M8598.871,3473.5l-8.567-8.681" transform="translate(-575.052 -403.027)"/>
    <path id="Path_96" data-name="Path 96" class="cls-1" d="M8593.473,3467.39l3.747-3.41" transform="translate(-575.15 -403)"/>
    <path id="Path_97" data-name="Path 97" class="cls-1" d="M8600.318,3459.836l25.375-24.737" transform="translate(-575.365 -402.1)"/>
    <path id="Path_98" data-name="Path 98" class="cls-1" d="M8587.106,3472.98l4.234,4.017" transform="translate(-574.953 -403.281)"/>
    <path id="Path_99" data-name="Path 99" class="cls-1" d="M8246.99,3329.338v-8.391h-51.428v71.769h51.428v-33.554" transform="translate(-204.261 -300.689)"/>
    <path id="Path_100" data-name="Path 100" class="cls-1" d="M8206.484,3334.1h32.38" transform="translate(-204.747 -301.1)"/>
    <path id="Path_101" data-name="Path 101" class="cls-1" d="M8206.484,3334.1h32.38" transform="translate(-204.747 -291.908)"/>
    <path id="Path_102" data-name="Path 102" class="cls-1" d="M8206.483,3334.1H8230.5" transform="translate(-204.747 -282.66)"/>
    <path id="Path_103" data-name="Path 103" class="cls-1" d="M8206.484,3334.1h12.532" transform="translate(-204.747 -272.307)"/>
    <path id="Path_107" data-name="Path 107" class="cls-1" d="M8206.484,3334.1h.917" transform="translate(-173.285 -272.035)"/>
    <path id="Path_104" data-name="Path 104" class="cls-1" d="M8206.484,3334.1h8.595" transform="translate(-204.747 -262.392)"/>
    <path id="Path_106" data-name="Path 106" class="cls-1" d="M8206.484,3334.1h12.878" transform="translate(-185.245 -262.392)"/>
    <path id="Path_105" data-name="Path 105" class="cls-1" d="M8206.484,3334.1h3.876" transform="translate(-204.747 -253.284)"/>
  </g>
</svg>
